<?xml version="1.0" encoding="utf-8"?>
<!-- Generator: Adobe Illustrator 27.2.0, SVG Export Plug-In . SVG Version: 6.00 Build 0)  -->
<svg version="1.1" id="Layer_1" xmlns="http://www.w3.org/2000/svg" xmlns:xlink="http://www.w3.org/1999/xlink" x="0px" y="0px"
	 viewBox="0 0 40 40" style="enable-background:new 0 0 40 40;" xml:space="preserve">
<style type="text/css">
	.st0{stroke:#000000;stroke-miterlimit:10;}
	.st1{fill:#FFFFFF;}
</style>
<circle class="st0" cx="19.93" cy="20.85" r="18"/>
<g>
	<path class="st1" d="M15.46,18.07c0,1.43,0.51,2.88,1.39,3.98c0.93,1.15,2.14,1.79,3.42,1.79c1.27,0,2.49-0.63,3.41-1.79
		c0.88-1.1,1.39-2.55,1.39-3.98v-1.28c0.94-2.98,0.59-5.5,0.29-6.2c0,0,0,0,0,0c0-0.01-0.01-0.01-0.01-0.02c0,0,0-0.01-0.01-0.01
		c0-0.01-0.01-0.01-0.01-0.02c0,0,0-0.01-0.01-0.01c0,0-0.01-0.01-0.01-0.01c0,0-0.01-0.01-0.01-0.01c0,0-0.01-0.01-0.01-0.01
		c0,0-0.01-0.01-0.01-0.01c0,0,0,0-0.01-0.01c-0.01,0-0.01-0.01-0.02-0.01c0,0,0,0-0.01-0.01c-0.01,0-0.01-0.01-0.02-0.01
		c0,0-0.01,0-0.01-0.01c-0.01,0-0.01-0.01-0.02-0.01c0,0-0.01,0-0.01-0.01c-0.01,0-0.01,0-0.02-0.01c0,0-0.01,0-0.01,0
		c0,0-0.01,0-0.01,0c0,0-0.01,0-0.01,0c-0.01,0-0.01,0-0.02,0c0,0-0.01,0-0.01,0c-0.01,0-0.01,0-0.02,0c0,0-0.01,0-0.01,0
		c-0.01,0-0.01,0-0.02,0c0,0-0.01,0-0.01,0c-0.01,0-0.01,0-0.02,0c0,0,0,0,0,0c-0.8,0.11-1.77-0.08-2.8-0.29
		c-1.72-0.35-3.51-0.7-4.9,0.29c-0.02,0-0.04-0.01-0.06-0.01c-1.43,0-2.43,1.18-2.43,2.88c0,1.31,0.55,3.76,0.63,4.1V18.07z"/>
	<path class="st1" d="M29.26,26.32c-0.43-0.63-1.03-1.07-1.74-1.27c-0.01,0-0.01,0-0.02-0.01l-2.55-0.53l-0.69-1.04
		c0-0.01-0.01-0.01-0.01-0.02c-0.1-0.14-0.26-0.23-0.43-0.25c-0.17-0.02-0.35,0.03-0.48,0.14c0,0,0,0-0.01,0.01l-3.05,2.63
		l-3.05-2.63c0,0,0,0-0.01-0.01c-0.13-0.11-0.31-0.16-0.48-0.14c-0.17,0.02-0.33,0.11-0.43,0.25c0,0.01-0.01,0.01-0.01,0.02
		l-0.69,1.04l-2.55,0.53c-0.01,0-0.01,0-0.02,0.01c-0.71,0.2-1.31,0.64-1.74,1.27c-0.39,0.58-0.61,1.28-0.61,1.96v0.79
		c0,0.64,0.57,1.16,1.28,1.16h7.36c0,0,0,0,0,0c0,0,0,0,0,0h1.92c0,0,0,0,0,0c0,0,0,0,0,0h7.36c0.71,0,1.28-0.52,1.28-1.16v-0.79
		C29.87,27.6,29.65,26.9,29.26,26.32z"/>
</g>
</svg>
