<?xml version="1.0" encoding="utf-8"?>
<!-- Generator: Adobe Illustrator 27.2.0, SVG Export Plug-In . SVG Version: 6.00 Build 0)  -->
<svg version="1.1" id="Layer_1" xmlns="http://www.w3.org/2000/svg" xmlns:xlink="http://www.w3.org/1999/xlink" x="0px" y="0px"
	 viewBox="0 0 40 40" style="enable-background:new 0 0 40 40;" xml:space="preserve">
<style type="text/css">
	.st0{stroke:#000000;stroke-miterlimit:10;}
	.st1{fill-rule:evenodd;clip-rule:evenodd;fill:#FFFFFF;}
</style>
<circle class="st0" cx="19.93" cy="20.85" r="18"/>
<path class="st1" d="M13.96,14.49c0-0.66,0.53-1.19,1.19-1.19h9.54c0.66,0,1.19,0.53,1.19,1.19c0,0.66-0.53,1.19-1.19,1.19h-3.58
	v11.53c0,0.66-0.53,1.19-1.19,1.19c-0.66,0-1.19-0.53-1.19-1.19V15.68h-3.58C14.5,15.68,13.96,15.15,13.96,14.49z M12.82,16.83
	c0.47,0.47,0.47,1.22,0,1.69l-2.34,2.34l2.34,2.34c0.47,0.47,0.47,1.22,0,1.69c-0.47,0.47-1.22,0.47-1.69,0l-3.18-3.18
	c-0.47-0.47-0.47-1.22,0-1.69l3.18-3.18C11.6,16.36,12.35,16.36,12.82,16.83z M27.03,16.83c0.47-0.47,1.22-0.47,1.69,0l3.18,3.18
	c0.47,0.47,0.47,1.22,0,1.69l-3.18,3.18c-0.47,0.47-1.22,0.47-1.69,0c-0.47-0.47-0.47-1.22,0-1.69l2.34-2.34l-2.34-2.34
	C26.57,18.05,26.57,17.29,27.03,16.83z"/>
</svg>
