<?xml version="1.0" encoding="utf-8"?>
<!-- Generator: Adobe Illustrator 27.2.0, SVG Export Plug-In . SVG Version: 6.00 Build 0)  -->
<svg version="1.1" id="Layer_1" xmlns="http://www.w3.org/2000/svg" xmlns:xlink="http://www.w3.org/1999/xlink" x="0px" y="0px"
	 viewBox="0 0 40 40" style="enable-background:new 0 0 40 40;" xml:space="preserve">
<style type="text/css">
	.st0{stroke:#000000;stroke-miterlimit:10;}
	.st1{fill:#FFFFFF;}
</style>
<circle class="st0" cx="19.93" cy="20.85" r="18"/>
<g>
	<path class="st1" d="M19.93,22c2.62,0,4.75-2.13,4.75-4.75v-0.95c0-2.62-2.13-4.75-4.75-4.75s-4.75,2.13-4.75,4.75v0.95
		C15.17,19.86,17.3,22,19.93,22z"/>
	<path class="st1" d="M26.5,23.32c-0.74-0.83-1.73-1.29-2.76-1.29h-0.81c-0.33,0-0.64,0.17-0.81,0.45c-0.55,0.9-1.35,1.42-2.19,1.42
		s-1.64-0.52-2.19-1.42c-0.17-0.28-0.48-0.45-0.81-0.45h-0.81c-2.14,0-3.79,2.03-3.79,3.77v2.06c0,0.96,0.78,1.74,1.74,1.74h11.73
		c0.96,0,1.74-0.78,1.74-1.74V25.8C27.53,24.97,27.15,24.04,26.5,23.32z"/>
</g>
</svg>
