<?xml version="1.0" encoding="utf-8"?>
<!-- Generator: Adobe Illustrator 27.2.0, SVG Export Plug-In . SVG Version: 6.00 Build 0)  -->
<svg version="1.1" xmlns="http://www.w3.org/2000/svg" xmlns:xlink="http://www.w3.org/1999/xlink" x="0px" y="0px"
	 viewBox="0 0 40 40" style="enable-background:new 0 0 40 40;" xml:space="preserve">
<style type="text/css">
	.st0{stroke:#000000;stroke-miterlimit:10;}
	.st1{fill:#FFFFFF;stroke:#FFFFFF;}
	.st2{fill:none;stroke:#010101;}
	.st3{fill:#FFFFFF;stroke:#010101;}
</style>
<g id="Layer_1">
	<circle class="st0" cx="19.93" cy="20.85" r="18"/>
</g>
<g id="Layer_2">
	<path class="st1" d="M31.11,25.34c-3.02-7.05-6-13.66-11.2-13.66s-8.17,6.67-11.2,13.66"/>
	<path class="st1" d="M17.43,12.79l-1.03-2.02c-2.17,0.26-4.23,1.09-5.98,2.39c0,0-3.05,4.44-3.6,13.18
		c3.09,3.56,7.78,3.59,7.78,3.59l1.82-2.44"/>
	<path class="st1" d="M23.57,27.48l1.82,2.43c0,0,4.69-0.01,7.78-3.57c-0.55-8.73-3.6-13.18-3.6-13.18s-2.74-2.15-5.98-2.39l-1,2.03
		"/>
	<ellipse class="st2" cx="16.11" cy="21.54" rx="2.1" ry="2.39"/>
	<ellipse class="st2" cx="23.89" cy="21.54" rx="2.1" ry="2.39"/>
	<path class="st3" d="M12.66,25.34c1.44,1.22,3.61,2.49,7.12,2.49s5.68-1.27,7.12-2.49"/>
</g>
</svg>
