<?xml version="1.0" encoding="utf-8"?>
<!-- Generator: Adobe Illustrator 27.2.0, SVG Export Plug-In . SVG Version: 6.00 Build 0)  -->
<svg version="1.1" id="Layer_1" xmlns="http://www.w3.org/2000/svg" xmlns:xlink="http://www.w3.org/1999/xlink" x="0px" y="0px"
	 viewBox="0 0 40 40" style="enable-background:new 0 0 40 40;" xml:space="preserve">
<style type="text/css">
	.st0{stroke:#000000;stroke-miterlimit:10;}
	.st1{fill:#FFFFFF;}
</style>
<circle class="st0" cx="19.93" cy="20.85" r="18"/>
<path class="st1" d="M12.2,27.5l1.37-6.45c0.05-0.25-0.11-0.49-0.36-0.55c-0.25-0.05-0.49,0.11-0.55,0.36l-1.37,6.45
	c-0.05,0.25,0.11,0.49,0.36,0.55C11.9,27.91,12.15,27.75,12.2,27.5L12.2,27.5z M25.05,21.05l1.39,6.46c0.05,0.25,0.3,0.41,0.55,0.35
	c0.25-0.05,0.41-0.3,0.35-0.55l-1.39-6.46c-0.05-0.25-0.3-0.41-0.55-0.35C25.15,20.56,24.99,20.8,25.05,21.05L25.05,21.05z"/>
<path class="st1" d="M18.85,18.39v-3.65c-0.24-0.1,2.6,0.8,2.36,0.89L18.85,18.39l0.03,4.02c0.24,0.1-2.25-1.47-2.01-1.57
	L18.85,18.39L18.85,18.39z M20.16,23.27c-0.46,0.19-1.17,0.19-1.63,0L8.3,19.08c-0.73-0.3-0.73-1.08,0-1.38l10.23-4.19
	c0.46-0.19,1.17-0.19,1.63,0l10.1,4.18c0.73,0.3,0.73,1.08,0,1.38L20.16,23.27z M25.95,20.86c-2.2,1.3-5.6,2.61-6.63,2.56
	c-1.9-0.09-2.46-0.83-6.66-2.55c-0.22-0.13-1.18,6.1-1.31,6.32s-0.06,0.5,0.16,0.63c2.35,1.38,5.02,2.12,7.81,2.12
	c2.78,0,5.45-0.74,7.8-2.11c0.22-0.13,0.29-0.41,0.16-0.63c-0.13-0.22-0.41-0.29-0.63-0.16L25.95,20.86z"/>
<rect x="13.52" y="20" transform="matrix(0.9993 -0.0376 0.0376 0.9993 -0.8027 0.7446)" class="st1" width="11.8" height="3.47"/>
</svg>
