<?xml version="1.0" encoding="utf-8"?>
<!-- Generator: Adobe Illustrator 27.2.0, SVG Export Plug-In . SVG Version: 6.00 Build 0)  -->
<svg version="1.1" id="Layer_1" xmlns="http://www.w3.org/2000/svg" xmlns:xlink="http://www.w3.org/1999/xlink" x="0px" y="0px"
	 viewBox="0 0 40 40" style="enable-background:new 0 0 40 40;" xml:space="preserve">
<style type="text/css">
	.st0{stroke:#000000;stroke-miterlimit:10;}
	.st1{fill:#FFFFFF;}
</style>
<circle class="st0" cx="19.93" cy="20.85" r="18"/>
<path class="st1" d="M12.91,26.58l1.37-6.45c0.05-0.25-0.11-0.49-0.36-0.55c-0.25-0.05-0.49,0.11-0.55,0.36L12,26.39
	c-0.05,0.25,0.11,0.49,0.36,0.55C12.61,26.99,12.86,26.83,12.91,26.58L12.91,26.58z M25.76,20.13l1.39,6.46
	c0.05,0.25,0.3,0.41,0.55,0.35c0.25-0.05,0.41-0.3,0.35-0.55l-1.39-6.46c-0.05-0.25-0.3-0.41-0.55-0.35
	C25.86,19.64,25.7,19.88,25.76,20.13L25.76,20.13z"/>
<path class="st1" d="M19.5,17.59v-3.65c-0.24-0.1,2.6,0.8,2.36,0.89L19.5,17.59l0.03,4.02c0.24,0.1-2.25-1.47-2.01-1.57L19.5,17.59
	L19.5,17.59z M20.81,22.47c-0.46,0.19-1.17,0.19-1.63,0L8.95,18.28c-0.73-0.3-0.73-1.08,0-1.38l10.23-4.19
	c0.46-0.19,1.17-0.19,1.63,0l10.1,4.18c0.73,0.3,0.73,1.08,0,1.38L20.81,22.47z M26.6,20.06c-2.2,1.3-5.6,2.61-6.63,2.56
	c-1.9-0.09-2.46-0.83-6.66-2.55c-0.22-0.13-1.18,6.1-1.31,6.32s-0.06,0.5,0.16,0.63c2.35,1.38,5.02,2.12,7.81,2.12
	c2.78,0,5.45-0.74,7.8-2.11c0.22-0.13,0.29-0.41,0.16-0.63c-0.13-0.22-0.41-0.29-0.63-0.16L26.6,20.06z"/>
<polygon class="st1" points="13.46,20.22 25.97,19.78 26.11,23.25 13.6,23.69 "/>
</svg>
