<?xml version="1.0" encoding="utf-8"?>
<!-- Generator: Adobe Illustrator 27.2.0, SVG Export Plug-In . SVG Version: 6.00 Build 0)  -->
<svg version="1.1" id="Layer_1" xmlns="http://www.w3.org/2000/svg" xmlns:xlink="http://www.w3.org/1999/xlink" x="0px" y="0px"
	 viewBox="0 0 40 40" style="enable-background:new 0 0 40 40;" xml:space="preserve">
<style type="text/css">
	.st0{stroke:#000000;stroke-miterlimit:10;}
	.st1{fill:#FFFFFF;stroke:#FFFFFF;stroke-miterlimit:10;}
</style>
<circle class="st0" cx="19.93" cy="20.85" r="18"/>
<g>
	<path class="st1" d="M28.08,14.65H24.2v-0.62c0-1.19-1.02-2.89-2.27-2.89h-3.88c-1.25,0-2.27,1.69-2.27,2.89v0.62h-3.88
		c-1.25,0-2.27,0.97-2.27,2.16v9.88c0,1.19,1.02,2.16,2.27,2.16h16.22c1.25,0,2.27-0.97,2.27-2.16v-9.88
		C30.35,15.61,29.32,14.65,28.08,14.65z M16.41,14.02c0-0.85,0.73-2.26,1.62-2.26h3.88c0.89,0,1.62,1.42,1.62,2.26v0.62H16.4
		L16.41,14.02L16.41,14.02z"/>
</g>
</svg>
