<?xml version="1.0" encoding="utf-8"?>
<!-- Generator: Adobe Illustrator 27.2.0, SVG Export Plug-In . SVG Version: 6.00 Build 0)  -->
<svg version="1.1" id="Layer_1" xmlns="http://www.w3.org/2000/svg" xmlns:xlink="http://www.w3.org/1999/xlink" x="0px" y="0px"
	 viewBox="0 0 40 40" style="enable-background:new 0 0 40 40;" xml:space="preserve">
<style type="text/css">
	.st0{stroke:#000000;stroke-miterlimit:10;}
	.st1{fill:#FFFFFF;stroke:#FFFFFF;stroke-miterlimit:10;}
</style>
<circle class="st0" cx="19.93" cy="20.85" r="18"/>
<g>
	<path class="st1" d="M28.53,14.94H24.4v-0.68c0-1.32-1.08-3.19-2.41-3.19h-4.13c-1.33,0-2.41,1.87-2.41,3.19v0.68h-4.13
		c-1.33,0-2.41,1.07-2.41,2.39v10.92c0,1.32,1.08,2.39,2.41,2.39h17.24c1.33,0,2.41-1.07,2.41-2.39V17.33
		C30.94,16,29.85,14.94,28.53,14.94z M16.12,14.25c0-0.94,0.78-2.5,1.72-2.5h4.13c0.95,0,1.72,1.57,1.72,2.5v0.68h-7.58L16.12,14.25
		L16.12,14.25z M11.51,16.34h17.24c0.95,0,1.72,0.61,1.72,1.35v2.01c-1.8,1.08-4.38,1.21-7.33,1.53c-0.23-0.53-0.88-0.93-1.64-0.93
		h-2.76c-0.76,0-1.41,0.39-1.64,0.93c-2.95-0.31-5.53-0.44-7.33-1.53v-2.01C9.79,16.94,10.57,16.34,11.51,16.34z"/>
</g>
</svg>
