<?xml version="1.0" encoding="utf-8"?>
<!-- Generator: Adobe Illustrator 27.2.0, SVG Export Plug-In . SVG Version: 6.00 Build 0)  -->
<svg version="1.1" id="Layer_1" xmlns="http://www.w3.org/2000/svg" xmlns:xlink="http://www.w3.org/1999/xlink" x="0px" y="0px"
	 viewBox="0 0 40 40" style="enable-background:new 0 0 40 40;" xml:space="preserve">
<style type="text/css">
	.st0{stroke:#000000;stroke-miterlimit:10;}
	.st1{fill:#FFFFFF;}
</style>
<circle class="st0" cx="19.93" cy="20.85" r="18"/>
<g>
	<path class="st1" d="M29.04,14.11h-4.37v-0.73c0-1.41-1.14-2.55-2.55-2.55h-4.37c-1.41,0-2.55,1.14-2.55,2.55v0.73h-4.37
		c-1.41,0-2.55,1.14-2.55,2.55v11.66c0,1.41,1.14,2.55,2.55,2.55h18.23c1.41,0,2.55-1.14,2.55-2.55V16.66
		C31.59,15.25,30.44,14.11,29.04,14.11z M15.92,13.38c0-1,0.82-1.82,1.82-1.82h4.37c1,0,1.82,0.82,1.82,1.82v0.73h-8.02V13.38z
		 M10.81,14.84h18.23c1,0,1.82,0.82,1.82,1.82v2.71c-1.9,1.46-4.63,2.48-7.75,2.91c-0.24-0.72-0.93-1.25-1.73-1.25h-2.92
		c-0.8,0-1.49,0.52-1.73,1.25c-3.12-0.42-5.85-1.45-7.75-2.91v-2.71C8.99,15.65,9.81,14.84,10.81,14.84z M22.48,22.86
		c0,0.6-0.49,1.09-1.09,1.09h-2.92c-0.6,0-1.09-0.49-1.09-1.09s0.49-1.09,1.09-1.09h2.92C21.99,21.76,22.48,22.25,22.48,22.86z
		 M29.04,30.15H10.81c-1,0-1.82-0.82-1.82-1.82v-8.05c1.97,1.36,4.65,2.32,7.66,2.73c0.08,0.94,0.86,1.67,1.82,1.67h2.92
		c0.96,0,1.74-0.74,1.82-1.67c3.01-0.41,5.69-1.36,7.66-2.73v8.05C30.86,29.33,30.04,30.15,29.04,30.15z"/>
	<path d="M28.31,16.29h0.73c0.2,0,0.36-0.16,0.36-0.36s-0.16-0.36-0.36-0.36h-0.73c-0.2,0-0.36,0.16-0.36,0.36
		S28.11,16.29,28.31,16.29z"/>
	<path d="M22.84,16.29h4.01c0.2,0,0.36-0.16,0.36-0.36s-0.16-0.36-0.36-0.36h-4.01c-0.2,0-0.36,0.16-0.36,0.36
		S22.64,16.29,22.84,16.29z"/>
</g>
</svg>
