<?xml version="1.0" encoding="utf-8"?>
<!-- Generator: Adobe Illustrator 27.2.0, SVG Export Plug-In . SVG Version: 6.00 Build 0)  -->
<svg version="1.1" id="Layer_1" xmlns="http://www.w3.org/2000/svg" xmlns:xlink="http://www.w3.org/1999/xlink" x="0px" y="0px"
	 viewBox="0 0 40 40" style="enable-background:new 0 0 40 40;" xml:space="preserve">
<style type="text/css">
	.st0{stroke:#000000;stroke-miterlimit:10;}
	.st1{fill:#FFFFFF;}
</style>
<circle class="st0" cx="19.93" cy="20.85" r="18"/>
<path class="st1" d="M30.03,13.46c-0.24-1.39-1.32-2.48-2.71-2.71c-3.23-0.55-9.33-0.8-13.81,3.69c-4.48,4.48-4.23,10.58-3.69,13.81
	c0.24,1.39,1.32,2.48,2.71,2.71c1.13,0.19,2.28,0.29,3.43,0.29c3.21,0,7.2-0.8,10.38-3.98C30.83,22.78,30.58,16.69,30.03,13.46z
	 M12.81,29.33c-0.7-0.12-1.24-0.66-1.36-1.36c-0.18-1.04-0.27-2.1-0.28-3.16l4.79,4.79C14.91,29.6,13.85,29.51,12.81,29.33
	L12.81,29.33z M23.81,18.13l-1.55,1.55l0.93,0.93c0.32,0.32,0.32,0.84,0,1.17c-0.32,0.32-0.84,0.32-1.17,0l0,0l-0.93-0.93
	l-1.17,1.17l0.93,0.93c0.32,0.32,0.32,0.84,0,1.17s-0.84,0.32-1.17,0l0,0l-0.93-0.93l-1.55,1.55c-0.32,0.32-0.84,0.32-1.17,0
	c-0.32-0.32-0.32-0.84,0-1.17l1.55-1.55l-0.93-0.93c-0.32-0.32-0.32-0.84,0-1.17c0.32-0.32,0.84-0.32,1.17,0l0,0l0.93,0.93
	l1.17-1.17L19,18.76c-0.32-0.32-0.32-0.84,0-1.17c0.32-0.32,0.84-0.32,1.17,0l0,0l0.93,0.93l1.55-1.55c0.32-0.32,0.84-0.32,1.17,0
	C24.13,17.29,24.13,17.81,23.81,18.13L23.81,18.13z M23.89,12.1c1.06,0.01,2.11,0.1,3.16,0.28c0.7,0.12,1.24,0.66,1.36,1.36
	c0.18,1.04,0.27,2.1,0.28,3.16L23.89,12.1z"/>
</svg>
