<?xml version="1.0" encoding="utf-8"?>
<!-- Generator: Adobe Illustrator 27.2.0, SVG Export Plug-In . SVG Version: 6.00 Build 0)  -->
<svg version="1.1" id="Layer_1" xmlns="http://www.w3.org/2000/svg" xmlns:xlink="http://www.w3.org/1999/xlink" x="0px" y="0px"
	 viewBox="0 0 40 40" style="enable-background:new 0 0 40 40;" xml:space="preserve">
<style type="text/css">
	.st0{fill:#FFFFFF;}
	.st1{stroke:#000000;stroke-miterlimit:10;}
	.st2{fill:none;stroke:#010101;stroke-width:2;stroke-linecap:round;stroke-linejoin:round;stroke-miterlimit:41.6667;}
	.st3{fill:#FFFFFF;stroke:#010101;stroke-linecap:round;stroke-linejoin:round;stroke-miterlimit:41.6667;}
</style>
<path class="st0" d="M29.85,29.88L29.85,29.88c1.58-2.1,2.52-4.72,2.48-7.55c-0.07-6.73-5.63-12.22-12.37-12.2
	c-6.8,0.02-12.3,5.53-12.3,12.32c0,2.78,0.92,5.35,2.48,7.42l5.8-9.6l2.18,3.63l-0.55-2.7L20,17.01l4.07,6.98l-0.58-2.67l0.58-0.93
	L29.85,29.88"/>
<circle class="st1" cx="19.93" cy="20.85" r="18"/>
<path class="st2" d="M29.85,29.88L29.85,29.88c1.58-2.1,2.52-4.72,2.48-7.55c-0.07-6.73-5.63-12.22-12.37-12.2
	c-6.8,0.02-12.3,5.53-12.3,12.32c0,2.78,0.92,5.35,2.48,7.42l5.8-9.6l2.18,3.63l-0.55-2.7L20,17.01l4.07,6.98l-0.58-2.67l0.58-0.93
	L29.85,29.88"/>
<path class="st3" d="M29.85,29.88L29.85,29.88c1.58-2.1,2.52-4.72,2.48-7.55c-0.07-6.73-5.63-12.22-12.37-12.2
	c-6.8,0.02-12.3,5.53-12.3,12.32c0,2.78,0.92,5.35,2.48,7.42l5.8-9.6l2.18,3.63l-0.55-2.7L20,17.01l4.07,6.98l-0.58-2.67l0.58-0.93
	L29.85,29.88"/>
</svg>
