<?xml version="1.0" encoding="utf-8"?>
<!-- Generator: Adobe Illustrator 27.2.0, SVG Export Plug-In . SVG Version: 6.00 Build 0)  -->
<svg version="1.1" id="Layer_1" xmlns="http://www.w3.org/2000/svg" xmlns:xlink="http://www.w3.org/1999/xlink" x="0px" y="0px"
	 viewBox="0 0 40 40" style="enable-background:new 0 0 40 40;" xml:space="preserve">
<style type="text/css">
	.st0{stroke:#000000;stroke-miterlimit:10;}
	.st1{fill:#FFFFFF;}
</style>
<circle class="st0" cx="19.93" cy="20.85" r="18"/>
<g>
	<g>
		<g>
			<path class="st1" d="M15.44,15.88h12.81v-0.8c0-0.66-0.54-1.2-1.2-1.2h-5.29v-0.7c0-1-0.81-1.8-1.8-1.8h-3.08
				c-0.48,0-0.93,0.19-1.27,0.53c-0.34,0.34-0.53,0.79-0.53,1.27v0.7H9.79c-0.66,0-1.2,0.54-1.2,1.2V25.8l4.04-8.18
				C13.12,16.63,14.33,15.88,15.44,15.88z M16.28,13.17c0-0.16,0.07-0.31,0.18-0.42c0.11-0.12,0.26-0.18,0.42-0.18h3.08
				c0.33,0,0.6,0.27,0.6,0.6v0.7h-4.28L16.28,13.17L16.28,13.17z"/>
			<path class="st1" d="M32.69,17.07H15.44c-0.66,0-1.44,0.48-1.73,1.08l-4.64,9.4c-0.29,0.59,0.01,1.08,0.67,1.08h17.26
				c0.66,0,1.44-0.48,1.73-1.08l4.64-9.4C33.65,17.56,33.35,17.07,32.69,17.07z"/>
		</g>
	</g>
</g>
</svg>
