<?xml version="1.0" encoding="utf-8"?>
<!-- Generator: Adobe Illustrator 27.2.0, SVG Export Plug-In . SVG Version: 6.00 Build 0)  -->
<svg version="1.1" id="Layer_1" xmlns="http://www.w3.org/2000/svg" xmlns:xlink="http://www.w3.org/1999/xlink" x="0px" y="0px"
	 viewBox="0 0 40 40" style="enable-background:new 0 0 40 40;" xml:space="preserve">
<style type="text/css">
	.st0{stroke:#000000;stroke-miterlimit:10;}
	.st1{fill-rule:evenodd;clip-rule:evenodd;fill:#FFFFFF;}
</style>
<circle class="st0" cx="19.93" cy="20.85" r="18"/>
<path class="st1" d="M11.9,22.87c0.05,0.02,0.09,0.03,0.14,0.03c0.05,0.12,0.12,0.28,0.2,0.46c0.19,0.45,0.44,1.05,0.71,1.68
	c0.54,1.28,1.08,2.6,1.2,2.98c0.15,0.47,0.3,0.79,0.47,1c0.09,0.11,0.19,0.21,0.31,0.28c0.06,0.04,0.12,0.07,0.19,0.09
	c0,0,0.01,0,0.01,0c0.34,0.13,0.65,0.08,0.85,0.01c0.1-0.04,0.19-0.08,0.25-0.11c0.03-0.02,0.06-0.03,0.08-0.05l0,0l3.01-1.88
	l3.48,2.67c0.05,0.04,0.11,0.07,0.17,0.1c0.42,0.18,0.82,0.25,1.2,0.19c0.38-0.05,0.68-0.21,0.91-0.39
	c0.22-0.18,0.37-0.37,0.46-0.52c0.05-0.07,0.08-0.14,0.11-0.19c0.01-0.03,0.02-0.05,0.03-0.07l0.01-0.02l0-0.01l0,0l0,0l0,0
	c0.02-0.05,0.03-0.09,0.04-0.14l3.18-16.03c0.01-0.05,0.02-0.1,0.02-0.16c0-0.47-0.18-0.92-0.59-1.19c-0.36-0.23-0.75-0.24-1-0.22
	c-0.27,0.02-0.52,0.09-0.69,0.14c-0.09,0.03-0.16,0.05-0.21,0.07c-0.03,0.01-0.05,0.02-0.06,0.03l-0.01,0.01L8.53,18.63l0,0
	c-0.01,0-0.03,0.01-0.04,0.02c-0.03,0.01-0.08,0.03-0.13,0.06c-0.11,0.05-0.25,0.12-0.4,0.23c-0.24,0.17-0.8,0.62-0.71,1.37
	c0.07,0.6,0.48,0.97,0.73,1.14c0.14,0.1,0.27,0.17,0.36,0.21c0.04,0.02,0.14,0.06,0.18,0.07l0.01,0L11.9,22.87z M26.98,13.11
	L26.98,13.11c-0.01,0-0.02,0.01-0.03,0.01l-17.85,7c-0.01,0-0.02,0.01-0.03,0.01l-0.01,0c-0.01,0-0.03,0.01-0.05,0.02
	C9,20.17,8.98,20.18,8.97,20.18c0.02,0.01,0.04,0.02,0.06,0.03c0.02,0.01,0.03,0.01,0.04,0.02l3.35,1.13
	c0.06,0.02,0.12,0.05,0.17,0.08l11.07-6.48l0.01-0.01c0.01,0,0.02-0.01,0.03-0.02c0.03-0.01,0.06-0.03,0.1-0.05
	c0.08-0.04,0.2-0.1,0.34-0.14c0.1-0.03,0.38-0.11,0.69-0.02c0.19,0.06,0.39,0.19,0.51,0.41c0.06,0.11,0.1,0.22,0.11,0.32
	c0.04,0.16,0.04,0.32,0,0.45c-0.07,0.29-0.28,0.52-0.47,0.7c-0.16,0.15-2.24,2.15-4.28,4.13c-1.02,0.98-2.03,1.96-2.79,2.69
	l-0.5,0.48l6.26,4.8c0.14,0.05,0.23,0.05,0.27,0.04c0.05-0.01,0.09-0.02,0.12-0.06c0.04-0.03,0.08-0.08,0.11-0.13l0,0l3.08-15.54
	c-0.05,0.01-0.09,0.02-0.14,0.04c-0.05,0.02-0.09,0.03-0.12,0.04C27,13.1,26.99,13.11,26.98,13.11L26.98,13.11z M17.96,26.33
	l-1.25-0.96l-0.3,1.93L17.96,26.33z M15.56,23.47l1.24-1.2c0.76-0.73,1.77-1.7,2.79-2.69l1.04-1l-6.95,4.07l0.04,0.09
	c0.19,0.45,0.45,1.05,0.71,1.68c0.2,0.47,0.4,0.97,0.59,1.43l0.3-1.92C15.34,23.75,15.43,23.59,15.56,23.47z"/>
</svg>
